<svg width="783" height="131" viewBox="0 0 783 131" fill="none" xmlns="http://www.w3.org/2000/svg">
<path d="M782.968 53.6699C782.968 62.9366 782.828 72.2034 782.993 81.4702C783.427 105.181 762.423 115.547 743.42 108.114C739.915 106.742 736.595 104.7 733.504 102.519C720.013 92.9999 706.644 83.3159 693.223 73.6952C692.707 73.3222 692.203 72.9366 691.662 72.6016C688.176 70.4398 684.473 69.1693 680.548 71.1667C676.654 73.1516 675.87 76.8621 675.788 80.8317C675.717 84.302 675.864 87.8102 675.399 91.23C673.812 102.81 663.431 111.224 651.706 110.667C639.591 110.099 629.733 100.655 629.599 88.7647C629.363 68.2337 629.159 47.6901 629.65 27.1654C630.173 5.50294 652.509 -6.2101 672.264 4.64958C678.26 7.94921 683.658 12.3361 689.253 16.3247C698.213 22.7153 707.032 29.3146 716.094 35.5599C718.904 37.4941 722.174 39.1755 725.475 39.9214C731.949 41.3879 736.48 37.4562 736.659 30.8949C736.741 27.8418 736.531 24.7697 736.837 21.7419C738.08 9.34618 748.314 0.325938 760.479 0.749454C773.103 1.18561 782.675 10.9391 782.962 23.6509C782.962 23.8595 782.962 24.0744 782.962 24.283C782.962 34.0744 782.962 43.8721 782.962 53.6635L782.968 53.6699Z" fill="black"/>
<path d="M126.631 80.7117C126.631 89.6624 126.663 98.6195 126.625 107.57C126.574 118.253 120.188 126.951 110.272 129.96C100.478 132.93 90.269 129.448 84.3106 120.68C80.0346 114.378 74.191 111.3 66.7223 110.895C59.9482 110.528 53.085 110.769 46.4065 109.789C20.3491 105.971 0.625933 83.2591 0.0141661 56.8748C-0.591229 30.4083 18.2716 6.5081 44.2398 1.83679C57.7625 -0.596843 71.5782 -0.811761 85.0498 2.40569C108.902 8.10102 126.14 29.8077 126.586 54.163C126.746 63.0063 126.612 71.8558 126.612 80.7054H126.631V80.7117Z" fill="black"/>
<path d="M560.221 110.573C546.947 111.426 534.31 108.828 522.948 101.148C503.715 88.1581 494.622 64.4665 500.351 42.1024C506.073 19.7699 525.159 3.16429 548.234 1.00879C558.895 0.0163721 569.659 -0.375537 580.218 2.18452C607.257 8.73952 625.017 33.7016 622.322 61.2174C619.677 88.1833 597.277 109.201 569.703 110.547C566.632 110.699 563.547 110.566 560.221 110.566V110.573Z" fill="black"/>
<path d="M135.081 53.3222C135.081 43.6319 135.055 33.9417 135.087 24.2514C135.132 10.9454 145.264 0.692564 158.252 0.762096C171.194 0.831628 181.206 10.9075 181.352 24.0238C181.378 26.5523 181.276 29.087 181.403 31.6092C181.664 36.8999 185.284 40.0984 190.618 39.8835C195.506 39.6812 199.546 37.393 203.401 34.7002C215.127 26.527 226.801 18.2779 238.578 10.1806C242.229 7.66476 246.002 5.23113 249.972 3.28422C261.067 -2.15194 273.627 1.50167 279.675 11.6597C285.735 21.843 282.842 34.3904 272.652 41.4764C242.663 62.3298 212.648 83.1389 182.633 103.961C176.286 108.36 169.308 110.977 161.482 110.699C146.131 110.149 135.253 98.7331 135.1 83.0378C135.004 73.1389 135.081 63.2337 135.081 53.3348V53.3222Z" fill="black"/>
<path d="M381.521 57.8926C381.521 68.0064 381.642 78.1202 381.489 88.2277C381.311 99.7953 372.612 109.207 361.161 110.529C349.607 111.862 338.882 104.802 336.168 93.6006C335.244 89.7763 335.358 85.6676 335.275 81.6853C335.103 73.6448 330.286 69.7889 322.518 72.1973C319.044 73.2719 315.699 75.1429 312.678 77.2036C300.781 85.3136 289.087 93.7144 277.208 101.856C273.468 104.416 269.561 106.862 265.438 108.727C254.752 113.544 242.446 109.429 236.768 99.4792C231.116 89.574 233.722 77.1846 243.268 70.5222C273.742 49.2516 304.286 28.0822 334.868 6.96966C342.394 1.7737 350.831 -0.451333 359.963 1.31858C372.478 3.74589 381.101 14.0683 381.445 27.2415C381.712 37.4501 381.496 47.6777 381.496 57.8926H381.528H381.521Z" fill="black"/>
<path d="M389.997 55.5599C389.997 44.9278 389.895 34.2894 390.029 23.6573C390.156 13.6383 395.84 5.54725 404.858 2.07695C413.633 -1.30485 423.485 0.882262 429.997 7.747C434.267 12.2413 436.306 17.6585 436.313 23.8216C436.325 33.8216 436.293 43.8279 436.325 53.828C436.351 60.8065 440.346 64.8014 447.388 64.8393C456.52 64.8899 465.646 64.8141 474.777 64.8646C488.243 64.9342 498.573 74.8899 498.579 87.7218C498.585 100.509 488.536 110.585 475.224 110.686C454.634 110.844 434.038 110.857 413.441 110.686C399.791 110.573 390.099 100.674 390.009 87.1403C389.939 76.6093 389.997 66.0783 389.997 55.5536V55.5599Z" fill="black"/>
</svg>
