<svg width="557" height="500" viewBox="0 0 557 500" fill="none" xmlns="http://www.w3.org/2000/svg">
<path d="M287.818 0.0113318C308.569 -0.219097 338.244 3.07091 367.546 9.31809C403.532 16.999 437.93 29.0325 469.268 48.7598C494.935 64.9154 516.416 85.3723 532.124 111.436C547.754 137.36 555.179 165.702 555.935 195.85C557.074 241.244 545.962 283.874 526.286 324.455C503.051 372.358 470.51 412.914 428.2 445.289C391.972 473.017 351.621 491.9 305.984 498.083C267.937 503.242 231.184 497.827 195.57 483.796C161.236 470.265 130.999 450.358 104.064 425.306C82.2758 405.041 63.5855 382.228 47.7499 357.048C32.2728 332.443 19.9705 306.405 11.611 278.561C3.23879 250.692 -1.01133 222.234 0.204819 193.098C2.21467 144.989 20.841 104.536 56.4422 71.8923C83.8376 46.7755 116.174 30.6199 151.2 19.2905C192.587 5.92567 235.127 0.0625381 287.818 0.0113318ZM178.723 270.189C178.044 268.486 177.584 267.257 177.059 266.054C175.279 261.983 171.644 259.832 167.24 260.242C163.067 260.626 160.161 263.289 159.188 267.731C158.932 268.922 158.804 270.163 158.804 271.379C158.778 296.586 158.765 321.792 158.816 346.998C158.816 348.599 159.111 350.276 159.597 351.799C160.993 356.113 164.449 358.456 168.891 358.328C173.257 358.213 176.816 355.614 177.916 351.364C178.454 349.29 178.595 347.062 178.608 344.899C178.672 329.78 178.518 314.649 178.736 299.53C178.8 295.523 179.222 291.235 180.746 287.599C184.189 279.368 193.739 275.117 203.379 276.705C212.609 278.228 217.998 284.168 218.92 294.038C219.189 296.88 219.176 299.748 219.189 302.615C219.227 317.606 219.163 332.597 219.266 347.574C219.304 354.026 222.671 357.905 228.124 358.315C234.435 358.789 238.686 354.692 238.724 347.715C238.826 331.099 238.647 314.47 238.839 297.853C239.006 282.466 251.167 273.44 266.145 277.294C272.699 278.984 277.014 283.029 278.409 289.609C279.228 293.437 279.459 297.443 279.484 301.361C279.612 316.889 279.459 332.43 279.625 347.958C279.689 354.282 283.734 358.302 289.393 358.341C295.256 358.379 299.224 354.615 299.25 348.189C299.34 329.383 299.404 310.578 299.007 291.785C298.904 287.01 297.791 281.915 295.832 277.563C285.859 255.313 255.251 251.217 238.238 269.613C235.609 272.463 233.053 272.485 230.569 269.677C217.653 255.057 195.659 254.136 181.719 267.603C180.886 268.409 179.952 269.126 178.71 270.176L178.723 270.189ZM279.932 151.953C279.164 149.995 278.678 148.638 278.102 147.319C276.514 143.722 273.788 141.815 269.806 141.776C263.738 141.712 260.269 145.45 260.256 152.491C260.192 174.702 260.218 196.925 260.218 219.136C260.218 222.951 260.128 226.779 260.32 230.581C260.615 236.226 264.276 239.708 269.768 239.836C275.157 239.952 279.023 236.533 279.638 230.965C279.817 229.352 279.766 227.7 279.766 226.062C279.766 211.34 279.74 196.618 279.804 181.909C279.804 179.195 279.958 176.43 280.496 173.793C282.518 163.923 289.956 158.29 301.029 157.996C310.81 157.74 317.223 162.732 319.656 172.846C320.321 175.585 320.513 178.504 320.526 181.346C320.603 196.477 320.565 211.609 320.577 226.727C320.577 228.366 320.526 230.017 320.744 231.63C321.371 236.533 324.93 239.657 329.91 239.836C335.197 240.028 339.024 237.148 339.869 232.104C340.202 230.107 340.189 228.033 340.189 225.998C340.241 210.047 340.01 194.096 340.343 178.158C340.625 164.934 350.7 156.626 363.898 158.111C373.973 159.25 380.143 165.433 380.476 175.572C380.847 187.004 380.694 198.462 380.758 209.906C380.796 216.589 380.591 223.271 380.898 229.941C381.193 236.38 385.123 239.952 391.063 239.849C396.875 239.734 400.69 235.842 400.715 229.441C400.792 211.174 400.895 192.918 400.613 174.651C400.472 165.753 398.014 157.356 391.818 150.584C378.773 136.323 354.642 136.105 340.765 150.033C337.309 153.507 333.998 153.507 330.831 150.033C318.849 136.873 296.395 136.284 283.709 148.779C282.697 149.777 281.52 150.622 279.92 151.979L279.932 151.953ZM219.637 224.474C220.264 224.846 220.891 225.217 221.519 225.588C221.852 227.201 222.3 228.814 222.492 230.44C223.208 236.559 226.447 239.913 231.722 239.824C237.073 239.734 240.875 235.906 240.9 229.902C241.003 211.929 241.272 193.93 240.785 175.969C240.324 158.969 231.043 146.705 215.976 142.147C204.301 138.614 192.51 138.896 180.886 142.429C172.719 144.913 165.819 149.47 160.89 156.562C157.191 161.875 157.805 167.174 162.183 170.298C166.536 173.396 171.721 172.641 175.331 167.392C182.154 157.496 191.896 155.512 202.713 156.741C210.881 157.676 217.576 161.35 220.239 169.927C221.519 174.075 220.827 175.252 216.526 176.225C208.013 178.145 199.474 179.963 190.961 181.909C182.269 183.893 173.897 186.684 166.446 191.792C157.344 198.026 154.477 206.949 155.437 217.434C156.371 227.585 161.774 234.652 171.004 238.735C186.417 245.546 205.965 241.168 217.473 228.379C218.446 227.304 218.92 225.793 219.611 224.474H219.637ZM381.257 343.9C381.577 346.051 381.846 348.33 382.268 350.583C383.241 355.652 386.813 358.545 391.716 358.328C396.44 358.123 400.062 354.705 400.088 349.482C400.19 329.87 400.587 310.245 399.768 290.671C399.205 277.063 391.754 267.104 378.927 261.881C365.869 256.568 352.543 257.029 339.293 261.317C331.126 263.967 324.507 268.845 319.668 275.962C316.788 280.2 317.582 285.576 321.281 288.431C325.455 291.657 330.294 291.107 334.032 286.972C334.493 286.472 334.915 285.935 335.312 285.372C342.788 274.938 353.413 273.492 364.884 275.617C372.091 276.961 377.66 280.981 379.913 288.495C381.129 292.566 380.54 293.68 376.469 294.55C369.403 296.061 362.298 297.392 355.27 299.044C344.772 301.514 334.518 304.459 325.327 310.603C310.554 320.486 310.733 348.471 329.385 356.574C341.674 361.912 353.938 361.746 365.639 355.486C371.156 352.541 375.816 348.01 381.27 343.9H381.257Z" fill="#F5F5F5"/>
<path d="M178.723 270.204C179.952 269.154 180.886 268.437 181.731 267.631C195.672 254.163 217.665 255.085 230.582 269.705C233.057 272.504 235.613 272.483 238.25 269.641C255.264 251.232 285.872 255.328 295.845 277.59C297.803 281.956 298.917 287.038 299.019 291.813C299.416 310.606 299.352 329.411 299.263 348.217C299.224 354.63 295.268 358.407 289.405 358.368C283.747 358.33 279.702 354.31 279.638 347.986C279.471 332.458 279.638 316.917 279.497 301.389C279.459 297.458 279.228 293.464 278.422 289.637C277.026 283.057 272.712 279.011 266.158 277.322C251.193 273.468 239.031 282.493 238.852 297.881C238.66 314.497 238.852 331.127 238.737 347.743C238.698 354.72 234.448 358.804 228.137 358.343C222.683 357.933 219.317 354.054 219.278 347.602C219.176 332.612 219.24 317.634 219.201 302.643C219.201 299.788 219.201 296.908 218.933 294.066C218.011 284.196 212.621 278.256 203.391 276.733C193.752 275.145 184.202 279.395 180.758 287.627C179.235 291.262 178.812 295.551 178.748 299.558C178.518 314.677 178.672 329.808 178.62 344.927C178.62 347.09 178.48 349.318 177.929 351.392C176.828 355.642 173.269 358.228 168.904 358.356C164.462 358.484 161.005 356.141 159.61 351.827C159.111 350.291 158.829 348.626 158.829 347.026C158.778 321.82 158.791 296.614 158.816 271.407C158.816 270.191 158.944 268.949 159.2 267.759C160.161 263.317 163.066 260.654 167.253 260.27C171.656 259.86 175.292 262.011 177.071 266.082C177.596 267.285 178.057 268.514 178.736 270.217L178.723 270.204Z" fill="#FF8898"/>
<path d="M279.932 151.966C281.545 150.622 282.71 149.764 283.722 148.766C296.408 136.271 318.862 136.86 330.844 150.02C334.011 153.494 337.322 153.494 340.778 150.02C354.668 136.092 378.799 136.31 391.831 150.571C398.027 157.356 400.485 165.741 400.626 174.638C400.908 192.893 400.818 211.161 400.728 229.429C400.703 235.829 396.888 239.734 391.076 239.836C385.136 239.951 381.206 236.367 380.911 229.928C380.604 223.258 380.809 216.576 380.771 209.893C380.707 198.449 380.86 186.991 380.489 175.559C380.156 165.421 373.986 159.237 363.911 158.098C350.712 156.613 340.625 164.921 340.356 178.145C340.023 194.083 340.241 210.034 340.202 225.985C340.202 228.02 340.215 230.094 339.882 232.091C339.037 237.135 335.21 240.003 329.923 239.823C324.943 239.644 321.384 236.508 320.757 231.618C320.552 230.005 320.603 228.353 320.59 226.715C320.59 211.583 320.629 196.452 320.539 181.333C320.526 178.491 320.334 175.585 319.669 172.833C317.224 162.719 310.823 157.727 301.042 157.983C289.969 158.277 282.531 163.91 280.509 173.78C279.971 176.43 279.83 179.195 279.817 181.896C279.753 196.618 279.792 211.34 279.779 226.049C279.779 227.688 279.83 229.326 279.651 230.952C279.036 236.508 275.17 239.939 269.781 239.823C264.302 239.708 260.628 236.213 260.333 230.568C260.141 226.766 260.231 222.938 260.231 219.123C260.231 196.913 260.205 174.689 260.269 152.478C260.295 145.437 263.751 141.699 269.819 141.763C273.801 141.802 276.527 143.709 278.115 147.306C278.691 148.625 279.177 149.982 279.945 151.941L279.932 151.966Z" fill="#FF8898"/>
<path d="M219.637 224.491C218.933 225.797 218.459 227.32 217.499 228.395C205.99 241.184 186.442 245.562 171.029 238.752C161.787 234.668 156.384 227.602 155.463 217.45C154.502 206.966 157.37 198.043 166.472 191.808C173.922 186.713 182.295 183.91 190.987 181.926C199.5 179.98 208.026 178.149 216.552 176.242C220.853 175.269 221.557 174.104 220.264 169.943C217.601 161.366 210.906 157.692 202.739 156.758C191.921 155.516 182.167 157.5 175.356 167.409C171.746 172.644 166.561 173.4 162.209 170.315C157.818 167.191 157.216 161.891 160.916 156.578C165.857 149.486 172.745 144.916 180.912 142.446C192.536 138.925 204.326 138.643 216.001 142.164C231.069 146.721 240.35 158.985 240.811 175.986C241.297 193.946 241.028 211.945 240.926 229.919C240.888 235.923 237.098 239.75 231.747 239.84C226.486 239.93 223.234 236.576 222.517 230.456C222.325 228.818 221.877 227.218 221.544 225.605C220.917 225.233 220.29 224.862 219.662 224.491H219.637ZM189.131 225.477C207.232 225.605 221.301 212.265 221.621 195.572C221.672 192.935 221.57 190.183 217.806 191.117C206.848 193.831 195.916 196.635 185.034 199.643C182.896 200.232 180.861 201.704 179.158 203.202C175.356 206.517 174.14 212.995 176.278 217.898C178.889 223.915 184.24 225.182 189.143 225.489L189.131 225.477Z" fill="#FF8898"/>
<path d="M381.257 343.914C375.804 348.023 371.144 352.555 365.626 355.499C353.913 361.759 341.662 361.926 329.372 356.587C310.721 348.484 310.541 320.5 325.314 310.617C334.506 304.472 344.76 301.528 355.257 299.057C362.285 297.406 369.39 296.074 376.457 294.564C380.528 293.693 381.116 292.579 379.9 288.508C377.66 280.994 372.079 276.974 364.871 275.63C353.401 273.492 342.776 274.952 335.3 285.385C334.903 285.935 334.48 286.473 334.019 286.985C330.294 291.12 325.455 291.67 321.269 288.444C317.569 285.59 316.776 280.213 319.656 275.976C324.495 268.858 331.113 263.968 339.281 261.331C352.53 257.042 365.844 256.581 378.915 261.894C391.742 267.104 399.192 277.077 399.756 290.685C400.575 310.258 400.165 329.896 400.076 349.495C400.05 354.718 396.427 358.136 391.703 358.341C386.8 358.559 383.229 355.665 382.256 350.596C381.821 348.343 381.565 346.064 381.244 343.914H381.257ZM349.868 343.811C367.483 343.824 381.027 330.421 381.244 312.883C381.283 309.618 379.964 308.773 376.994 309.503C373.551 310.348 370.056 310.95 366.625 311.846C359.379 313.753 352.108 315.558 344.978 317.824C340.612 319.219 336.9 321.831 335.338 326.555C332.189 336.041 338.718 343.786 349.868 343.798V343.811Z" fill="#FF8898"/>
<path d="M189.131 225.477C184.228 225.169 178.877 223.914 176.265 217.885C174.14 212.982 175.356 206.517 179.146 203.188C180.848 201.691 182.884 200.218 185.021 199.629C195.903 196.608 206.835 193.805 217.794 191.104C221.557 190.169 221.66 192.934 221.608 195.559C221.288 212.252 207.219 225.591 189.118 225.463L189.131 225.477Z" fill="#F5F5F5"/>
<path d="M349.855 343.817C338.705 343.817 332.176 336.059 335.326 326.573C336.887 321.849 340.6 319.238 344.965 317.842C352.096 315.576 359.367 313.759 366.613 311.864C370.043 310.968 373.538 310.353 376.982 309.521C379.952 308.792 381.283 309.637 381.232 312.901C381.014 330.439 367.47 343.842 349.855 343.83V343.817Z" fill="#F5F5F5"/>
</svg>
