<svg width="760" height="541" viewBox="0 0 760 541" fill="none" xmlns="http://www.w3.org/2000/svg">
<g clip-path="url(#clip0_6841_44016)">
<path d="M744.16 180.37L736.88 176.31V0.03H721.88C654.98 0.03 597.7 35.92 566.8 90.45V23.54C566.8 10.58 556.26 0.04 543.3 0.04H390.23C377.27 0.04 366.73 10.58 366.73 23.54V96.51C338.89 42.82 286.16 5.76 223.36 0.64V0H203.54C194.75 0 186.49 3.42 180.27 9.64L179.36 10.55C174.97 14.94 172.55 20.77 172.55 26.98V164.31C172.55 166.31 172.8 168.26 173.28 170.11H23.28V219.74C22.98 219.9 22.69 220.06 22.4 220.24L11.45 226.85C4.39 231.11 0 238.87 0 247.12V292.8C0 301.04 4.39 308.81 11.44 313.07L22.39 319.68C22.68 319.85 22.97 320.02 23.27 320.18V370.21H173.28C172.8 372.07 172.55 374.01 172.55 376.01V513.34C172.55 519.55 174.97 525.38 179.36 529.77L180.27 530.68C186.49 536.9 194.75 540.32 203.54 540.32L223.36 540.29V539.68C286.16 534.56 338.9 497.5 366.72 443.82V516.79C366.72 529.75 377.26 540.29 390.22 540.29H543.29C556.25 540.29 566.79 529.75 566.79 516.79V449.87C597.69 504.4 654.97 540.29 721.87 540.29H736.87V364.02L744.15 359.96C753.61 354.68 759.49 344.66 759.49 333.83V206.53C759.49 195.69 753.61 185.68 744.15 180.4L744.16 180.37Z" fill="#86C2EB"/>
<path d="M111.328 271.059V259.449C111.328 252.199 114.048 248.969 121.378 248.969H134.058V256.219H121.258C119.308 256.219 117.168 257.129 117.168 260.009C117.168 262.889 119.438 263.799 121.058 263.799H134.048V271.049H111.318L111.328 271.059Z" fill="#FFF7E2"/>
<path d="M134.059 312.227H111.289V319.477H134.059V312.227Z" fill="#FFF7E2"/>
<path d="M134.059 245.97V241.98C134.059 240.58 134.299 239.18 134.789 237.87C135.269 236.57 135.529 235.16 135.529 233.69C135.529 227 130.089 221.57 123.409 221.57C116.729 221.57 111.289 226.45 111.289 233.43V245.98H134.059V245.97ZM123.409 228.31C126.369 228.31 128.779 230.72 128.779 233.68C128.779 236.64 126.369 239.05 123.409 239.05C120.449 239.05 118.039 236.64 118.039 233.68C118.039 230.72 120.449 228.31 123.409 228.31Z" fill="#FFF7E2"/>
<path d="M134.059 299.142C134.059 295.622 134.059 273.922 134.059 273.922H111.289V281.502H125.339C127.189 281.502 128.499 282.592 128.499 284.452C128.499 286.312 127.149 287.402 125.339 287.402H111.289V295.422L125.339 295.442C127.149 295.442 128.499 296.362 128.499 298.392C128.499 300.422 127.189 301.342 125.339 301.342H111.289V309.002H123.769C130.609 309.002 134.059 304.972 134.059 299.162V299.142Z" fill="#FFF7E2"/>
<path d="M19.1898 300.21L30.1398 306.82C31.8198 307.83 33.9598 306.62 33.9598 304.66V297.68H38.2698V349.52C38.2698 352.65 40.8098 355.19 43.9398 355.19H208.35L195.78 367.76C191.23 367.76 187.54 371.45 187.54 376V513.33C187.54 515.51 188.41 517.61 189.95 519.15L190.86 520.06C194.22 523.42 198.77 525.31 203.52 525.31H208.34V525.28C302.27 525.28 372.91 449.13 372.91 355.2H381.7V516.77C381.7 521.47 385.51 525.27 390.2 525.27H543.27C547.97 525.27 551.77 521.46 551.77 516.77V355.2H557.28C557.28 449.13 627.91 525.28 721.85 525.28V355.2L736.82 346.84C741.55 344.2 744.47 339.22 744.47 333.8V206.5C744.47 201.09 741.54 196.1 736.82 193.46L721.85 185.1V15.03C627.92 15.03 557.28 91.18 557.28 185.11H551.77V23.54C551.77 18.84 547.96 15.04 543.27 15.04H390.2C385.5 15.04 381.7 18.85 381.7 23.54V185.11H372.91C372.91 91.18 302.28 15.03 208.34 15.03V15H203.52C198.77 15 194.22 16.89 190.86 20.25L189.95 21.16C188.41 22.7 187.54 24.8 187.54 26.98V164.31C187.54 168.86 191.23 172.55 195.78 172.55L208.35 185.12H43.9498C40.8198 185.12 38.2798 187.66 38.2798 190.79V242.22H33.9698V235.24C33.9698 233.28 31.8298 232.07 30.1498 233.08L19.1998 239.69C16.5998 241.26 15.0098 244.07 15.0098 247.11V292.79C15.0098 295.83 16.5998 298.64 19.1998 300.21H19.1898ZM721.87 234.61H726.15V305.7H721.87V234.61Z" stroke="#E30613" stroke-width="0.25" stroke-miterlimit="10"/>
<path d="M721.869 355.188H208.539" stroke="#85BE4B" stroke-width="0.25" stroke-miterlimit="10"/>
<path d="M721.869 185.156H208.539" stroke="#85BE4B" stroke-width="0.25" stroke-miterlimit="10"/>
<path d="M721.869 355.186V185.156" stroke="#85BE4B" stroke-width="0.25" stroke-miterlimit="10"/>
<path d="M208.539 355.188V525.297" stroke="#85BE4B" stroke-width="0.25" stroke-miterlimit="10"/>
<path d="M208.539 185.16V15" stroke="#85BE4B" stroke-width="0.25" stroke-miterlimit="10"/>
<path d="M381.719 355.186V185.156" stroke="#85BE4B" stroke-width="0.25" stroke-miterlimit="10"/>
<path d="M551.799 355.186V185.156" stroke="#85BE4B" stroke-width="0.25" stroke-miterlimit="10"/>
<path d="M208.539 355.189V185.109" stroke="#85BE4B" stroke-width="0.25" stroke-miterlimit="10"/>
<path d="M38.2793 297.681V242.211" stroke="#85BE4B" stroke-width="0.25" stroke-miterlimit="10"/>
</g>
<defs>
<clipPath id="clip0_6841_44016">
<rect width="759.5" height="540.3" fill="white"/>
</clipPath>
</defs>
</svg>
