<svg width="570" height="141" viewBox="0 0 570 141" fill="none" xmlns="http://www.w3.org/2000/svg">
<path d="M220.351 140.762C178.211 140.762 159.391 124.943 159.391 82.3025V8.5625H201.581V83.0025C201.581 94.3425 206.901 106.772 223.641 106.772C240.381 106.772 245.701 93.5825 245.701 84.1525V8.5625H287.891V140.762H220.351Z" fill="#020A0A"/>
<path d="M569.549 8.5625H527.359V141.003H569.549V8.5625Z" fill="#020A0A"/>
<path d="M141.98 8.56H118.78C110.62 8.56 102.51 7.15 94.84 4.33C87.25 1.53 79.06 0 70.51 0C31.63 0 0 31.63 0 70.52C0 109.41 28.4 141 68.97 141H141.98V8.56ZM39.27 70.52C39.27 53.29 53.29 39.27 70.52 39.27C87.75 39.27 101.77 53.29 101.77 70.52C101.77 87.75 87.75 101.77 70.52 101.77C53.29 101.77 39.27 87.75 39.27 70.52Z" fill="#020A0A"/>
<path d="M451.241 8.5625H304.551V141.003H348.621V59.2825C348.621 48.5225 354.981 40.9125 365.751 40.9125C376.521 40.9125 382.881 48.7325 382.881 59.2825V141.003H429.561L429.651 59.2825C429.651 48.7325 435.011 40.9125 446.781 40.9125C458.551 40.9125 463.911 48.5325 463.911 59.2825V141.003H508.441V68.4225C508.441 28.6325 484.981 8.5625 451.231 8.5625H451.241Z" fill="#020A0A"/>
</svg>
